<?xml version="1.0" standalone="no"?>
<!DOCTYPE svg PUBLIC "-//W3C//DTD SVG 20010904//EN"
 "http://www.w3.org/TR/2001/REC-SVG-20010904/DTD/svg10.dtd">
<svg version="1.0" xmlns="http://www.w3.org/2000/svg"
 width="400.000000pt" height="400.000000pt" viewBox="0 0 400.000000 400.000000"
 preserveAspectRatio="xMidYMid meet">
<metadata>
Created by potrace 1.14, written by Peter Selinger 2001-2017
</metadata>
<g transform="translate(0.000000,400.000000) scale(0.100000,-0.100000)"
fill="#000000" stroke="none">
<path d="M2197 3524 c-1 -1 -27 -4 -57 -8 -64 -6 -109 -17 -165 -39 -52 -21
-106 -26 -164 -15 -25 5 -93 11 -151 13 -99 4 -111 2 -200 -29 -110 -38 -236
-101 -289 -144 -9 -7 -43 -34 -77 -61 -33 -27 -83 -75 -110 -108 -27 -32 -52
-60 -55 -63 -3 -3 -23 -32 -44 -65 -99 -157 -161 -386 -166 -625 -2 -49 10
-302 16 -339 1 -8 -4 -49 -11 -90 -23 -136 -35 -171 -78 -230 -30 -40 -37 -60
-41 -110 -5 -54 -1 -70 24 -125 32 -70 81 -132 113 -141 14 -5 28 1 47 19 l27
26 2 -83 c1 -63 7 -97 26 -138 21 -48 29 -82 41 -184 2 -17 4 -67 6 -112 2
-92 16 -125 45 -107 27 16 47 115 56 276 2 37 10 43 14 10 2 -9 6 -37 10 -62
10 -59 9 -71 -17 -192 l-22 -102 23 -18 c17 -14 26 -15 42 -7 26 14 78 72 100
113 l18 31 -6 -54 c-5 -52 9 -111 26 -111 32 0 80 63 80 105 0 8 5 15 11 15 5
0 7 -5 4 -10 -11 -18 15 -79 37 -86 33 -10 51 21 83 138 15 56 28 108 29 115
1 7 5 15 8 19 4 3 4 -57 2 -133 -7 -205 -6 -225 10 -241 23 -23 53 -5 91 57
19 32 35 62 35 66 0 4 11 18 25 31 19 17 25 33 25 64 0 24 5 40 12 40 6 0 9
-3 5 -6 -7 -8 31 -86 47 -96 37 -25 49 18 54 187 2 83 6 152 8 155 3 2 14 -2
26 -9 31 -19 68 -23 99 -11 21 9 33 8 57 -4 39 -20 76 -20 96 0 12 12 26 14
55 9 26 -4 49 -2 68 8 21 11 34 12 47 5 32 -18 123 18 149 58 13 20 30 34 42
34 11 0 30 7 42 15 21 15 23 14 31 -17 5 -18 10 -107 11 -198 2 -225 15 -333
43 -367 12 -15 100 -15 110 1 4 6 8 23 8 37 0 37 10 42 31 15 10 -13 27 -26
38 -29 25 -6 61 19 61 42 0 13 7 19 25 19 47 0 69 38 79 137 2 28 5 53 5 56 1
3 12 4 25 2 49 -10 106 51 106 112 0 27 3 31 33 33 43 3 57 23 46 70 -5 20 -9
45 -9 55 0 16 2 16 24 2 13 -8 31 -12 40 -9 15 6 16 15 11 53 -5 39 -3 50 13
64 10 10 19 31 20 47 0 17 10 42 21 56 12 15 21 35 21 45 0 11 9 28 21 40 16
16 19 27 14 51 -4 18 -3 28 2 25 14 -9 53 21 53 40 0 15 -11 40 -95 218 -31
66 -32 70 -13 73 25 5 33 28 20 55 -29 58 -41 111 -58 261 -4 32 -10 179 -18
431 -3 77 -7 151 -10 165 -3 14 -7 41 -10 60 -3 19 -12 60 -21 90 -8 30 -17
63 -20 73 -2 11 -21 52 -41 93 -87 176 -361 373 -590 424 -55 13 -249 31 -257
24z m-298 -216 c45 -24 85 -57 78 -65 -3 -2 -25 11 -50 29 -24 18 -53 38 -63
45 -32 20 -8 14 35 -9z m310 18 c-11 -10 -79 -34 -79 -27 0 4 12 12 28 18 27
11 59 16 51 9z m-408 -111 c43 -18 16 -18 -31 0 -19 7 -28 14 -19 14 9 1 32
-6 50 -14z m-493 -2 c-1 -5 -32 -35 -68 -68 -61 -56 -45 -31 27 42 30 31 49
42 41 26z m712 -63 c13 -8 13 -10 -2 -10 -9 0 -20 5 -23 10 -8 13 5 13 25 0z
m895 -74 l17 -31 -21 25 c-12 14 -29 39 -37 55 l-15 30 19 -24 c11 -14 27 -38
37 -55z m-380 -105 c30 -30 53 -56 50 -59 -3 -3 -32 20 -64 51 -33 32 -64 57
-70 57 -6 0 -11 4 -11 10 0 19 42 -7 95 -59z m392 -423 c-3 -8 -6 -5 -6 6 -1
11 2 17 5 13 3 -3 4 -12 1 -19z m10 -40 c-3 -8 -6 -5 -6 6 -1 11 2 17 5 13 3
-3 4 -12 1 -19z m-28 -464 c-2 -47 -7 -88 -12 -91 -6 -3 -7 16 -4 48 4 30 7
71 7 92 0 20 3 37 6 37 3 0 4 -39 3 -86z m114 -169 c3 -27 8 -66 11 -85 4 -19
-3 -6 -14 29 -11 36 -17 75 -14 88 8 32 11 27 17 -32z"/>
</g>
</svg>
